# xmcd
#
# Track frame offsets: 
#        151
#        14361
#        38547
#        59620
#        86821
#        111691
#        125950
#        151820
#        172384
#        206355
#
# Disc length: 3005 seconds
#
# Revision: 0
# Processed by: cddbd v1.5.1PL2 Copyright (c) Steve Scherf et al.
# Submitted via: ExactAudioCopy v0.95a5
#
DISCID=910bbb0a
DTITLE=Heather Hardy - I Believe
DYEAR=1900
DGENRE=Blues
TTITLE0=Chi Chi
TTITLE1=I believe
TTITLE2=Gotta Love You Better
TTITLE3=Oh Blues
TTITLE4=Pipe Dream
TTITLE5=Physical Thing
TTITLE6=Jacob's Song
TTITLE7=Reach OUt
TTITLE8=Why?
TTITLE9=Traffic Violation
EXTD=
EXTT0=
EXTT1=
EXTT2=
EXTT3=
EXTT4=
EXTT5=
EXTT6=
EXTT7=
EXTT8=
EXTT9=
PLAYORDER=
